<?xml version="1.0" encoding="UTF-8" standalone="no"?>
<!DOCTYPE svg PUBLIC "-//W3C//DTD SVG 1.1//EN"
 "http://www.w3.org/Graphics/SVG/1.1/DTD/svg11.dtd">
<!-- Generated by graphviz version 2.40.1 (20161225.0304)
 -->
<!-- Title: G Pages: 1 -->
<svg width="764pt" height="260pt"
 viewBox="0.00 0.00 764.14 260.00" xmlns="http://www.w3.org/2000/svg" xmlns:xlink="http://www.w3.org/1999/xlink">
<g id="graph0" class="graph" transform="scale(1 1) rotate(0) translate(4 256)">
<title>G</title>
<polygon fill="#ffffff" stroke="transparent" points="-4,4 -4,-256 760.1448,-256 760.1448,4 -4,4"/>
<!-- requests -->
<g id="node1" class="node">
<title>requests</title>
<ellipse fill="none" stroke="#000000" cx="157.8472" cy="-234" rx="39.7935" ry="18"/>
<text text-anchor="middle" x="157.8472" y="-230.3" font-family="Times,serif" font-size="14.00" fill="#000000">requests</text>
</g>
<!-- certifi -->
<g id="node2" class="node">
<title>certifi</title>
<ellipse fill="none" stroke="#000000" cx="31.8472" cy="-162" rx="31.6951" ry="18"/>
<text text-anchor="middle" x="31.8472" y="-158.3" font-family="Times,serif" font-size="14.00" fill="#000000">certifi</text>
</g>
<!-- requests&#45;&gt;certifi -->
<g id="edge1" class="edge">
<title>requests&#45;&gt;certifi</title>
<path fill="none" stroke="#000000" d="M132.9536,-219.7751C112.9977,-208.3718 84.8709,-192.2992 63.348,-180.0005"/>
<polygon fill="#000000" stroke="#000000" points="64.9903,-176.9078 54.5713,-174.9852 61.5173,-182.9855 64.9903,-176.9078"/>
</g>
<!-- chardet -->
<g id="node3" class="node">
<title>chardet</title>
<ellipse fill="none" stroke="#000000" cx="117.8472" cy="-162" rx="36.2938" ry="18"/>
<text text-anchor="middle" x="117.8472" y="-158.3" font-family="Times,serif" font-size="14.00" fill="#000000">chardet</text>
</g>
<!-- requests&#45;&gt;chardet -->
<g id="edge2" class="edge">
<title>requests&#45;&gt;chardet</title>
<path fill="none" stroke="#000000" d="M147.9595,-216.2022C143.3094,-207.832 137.6695,-197.6802 132.5336,-188.4356"/>
<polygon fill="#000000" stroke="#000000" points="135.5371,-186.6348 127.6211,-179.593 129.418,-190.0344 135.5371,-186.6348"/>
</g>
<!-- idna -->
<g id="node4" class="node">
<title>idna</title>
<ellipse fill="none" stroke="#000000" cx="198.8472" cy="-162" rx="27" ry="18"/>
<text text-anchor="middle" x="198.8472" y="-158.3" font-family="Times,serif" font-size="14.00" fill="#000000">idna</text>
</g>
<!-- requests&#45;&gt;idna -->
<g id="edge3" class="edge">
<title>requests&#45;&gt;idna</title>
<path fill="none" stroke="#000000" d="M167.7721,-216.5708C172.6572,-207.9922 178.6454,-197.4762 184.0569,-187.9732"/>
<polygon fill="#000000" stroke="#000000" points="187.1066,-189.6905 189.0136,-179.2687 181.0237,-186.2266 187.1066,-189.6905"/>
</g>
<!-- urllib3 -->
<g id="node5" class="node">
<title>urllib3</title>
<ellipse fill="none" stroke="#000000" cx="277.8472" cy="-162" rx="34.394" ry="18"/>
<text text-anchor="middle" x="277.8472" y="-158.3" font-family="Times,serif" font-size="14.00" fill="#000000">urllib3</text>
</g>
<!-- requests&#45;&gt;urllib3 -->
<g id="edge4" class="edge">
<title>requests&#45;&gt;urllib3</title>
<path fill="none" stroke="#000000" d="M181.8426,-219.6028C200.3481,-208.4994 226.1048,-193.0454 246.2814,-180.9395"/>
<polygon fill="#000000" stroke="#000000" points="248.3388,-183.7868 255.1129,-175.6405 244.7373,-177.7843 248.3388,-183.7868"/>
</g>
<!-- pytest -->
<g id="node6" class="node">
<title>pytest</title>
<ellipse fill="none" stroke="#000000" cx="528.8472" cy="-234" rx="31.6951" ry="18"/>
<text text-anchor="middle" x="528.8472" y="-230.3" font-family="Times,serif" font-size="14.00" fill="#000000">pytest</text>
</g>
<!-- attrs -->
<g id="node7" class="node">
<title>attrs</title>
<ellipse fill="none" stroke="#000000" cx="356.8472" cy="-162" rx="27" ry="18"/>
<text text-anchor="middle" x="356.8472" y="-158.3" font-family="Times,serif" font-size="14.00" fill="#000000">attrs</text>
</g>
<!-- pytest&#45;&gt;attrs -->
<g id="edge5" class="edge">
<title>pytest&#45;&gt;attrs</title>
<path fill="none" stroke="#000000" d="M502.6767,-223.416C476.1813,-212.6528 434.0635,-195.412 397.8472,-180 394.8429,-178.7215 391.7208,-177.378 388.6004,-176.0253"/>
<polygon fill="#000000" stroke="#000000" points="389.9293,-172.7865 379.364,-171.9951 387.1297,-179.2023 389.9293,-172.7865"/>
</g>
<!-- importlib&#45;metadata -->
<g id="node8" class="node">
<title>importlib&#45;metadata</title>
<ellipse fill="none" stroke="#000000" cx="493.8472" cy="-90" rx="79.0865" ry="18"/>
<text text-anchor="middle" x="493.8472" y="-86.3" font-family="Times,serif" font-size="14.00" fill="#000000">importlib&#45;metadata</text>
</g>
<!-- pytest&#45;&gt;importlib&#45;metadata -->
<g id="edge6" class="edge">
<title>pytest&#45;&gt;importlib&#45;metadata</title>
<path fill="none" stroke="#000000" d="M499.5132,-226.6458C476.3522,-219.1254 445.569,-204.9209 430.8472,-180 422.7092,-166.2242 424.1615,-158.5362 430.8472,-144 436.4044,-131.9175 446.1466,-121.5267 456.3328,-113.1789"/>
<polygon fill="#000000" stroke="#000000" points="458.6978,-115.7769 464.5256,-106.9288 454.4521,-110.2115 458.6978,-115.7769"/>
</g>
<!-- iniconfig -->
<g id="node9" class="node">
<title>iniconfig</title>
<ellipse fill="none" stroke="#000000" cx="481.8472" cy="-162" rx="42.4939" ry="18"/>
<text text-anchor="middle" x="481.8472" y="-158.3" font-family="Times,serif" font-size="14.00" fill="#000000">iniconfig</text>
</g>
<!-- pytest&#45;&gt;iniconfig -->
<g id="edge7" class="edge">
<title>pytest&#45;&gt;iniconfig</title>
<path fill="none" stroke="#000000" d="M517.7088,-216.937C512.0558,-208.277 505.0685,-197.5731 498.7677,-187.9207"/>
<polygon fill="#000000" stroke="#000000" points="501.6292,-185.9013 493.2321,-179.4407 495.7675,-189.7277 501.6292,-185.9013"/>
</g>
<!-- pluggy -->
<g id="node10" class="node">
<title>pluggy</title>
<ellipse fill="none" stroke="#000000" cx="576.8472" cy="-162" rx="35.194" ry="18"/>
<text text-anchor="middle" x="576.8472" y="-158.3" font-family="Times,serif" font-size="14.00" fill="#000000">pluggy</text>
</g>
<!-- pytest&#45;&gt;pluggy -->
<g id="edge8" class="edge">
<title>pytest&#45;&gt;pluggy</title>
<path fill="none" stroke="#000000" d="M540.2225,-216.937C545.9958,-208.277 553.1318,-197.5731 559.5667,-187.9207"/>
<polygon fill="#000000" stroke="#000000" points="562.5852,-189.7027 565.2201,-179.4407 556.7608,-185.8197 562.5852,-189.7027"/>
</g>
<!-- py -->
<g id="node11" class="node">
<title>py</title>
<ellipse fill="none" stroke="#000000" cx="656.8472" cy="-162" rx="27" ry="18"/>
<text text-anchor="middle" x="656.8472" y="-158.3" font-family="Times,serif" font-size="14.00" fill="#000000">py</text>
</g>
<!-- pytest&#45;&gt;py -->
<g id="edge9" class="edge">
<title>pytest&#45;&gt;py</title>
<path fill="none" stroke="#000000" d="M551.4364,-221.2936C572.5048,-209.4426 604.0657,-191.6896 627.1616,-178.6982"/>
<polygon fill="#000000" stroke="#000000" points="629.1764,-181.5806 636.1762,-173.6274 625.7445,-175.4796 629.1764,-181.5806"/>
</g>
<!-- toml -->
<g id="node12" class="node">
<title>toml</title>
<ellipse fill="none" stroke="#000000" cx="728.8472" cy="-162" rx="27.0966" ry="18"/>
<text text-anchor="middle" x="728.8472" y="-158.3" font-family="Times,serif" font-size="14.00" fill="#000000">toml</text>
</g>
<!-- pytest&#45;&gt;toml -->
<g id="edge10" class="edge">
<title>pytest&#45;&gt;toml</title>
<path fill="none" stroke="#000000" d="M557.451,-225.9598C590.541,-216.3439 646.4243,-199.1294 692.8472,-180 694.64,-179.2612 696.4672,-178.4711 698.3002,-177.6495"/>
<polygon fill="#000000" stroke="#000000" points="699.8275,-180.799 707.3816,-173.3702 696.8436,-174.4667 699.8275,-180.799"/>
</g>
<!-- typing&#45;extensions -->
<g id="node13" class="node">
<title>typing&#45;extensions</title>
<ellipse fill="none" stroke="#000000" cx="434.8472" cy="-18" rx="73.387" ry="18"/>
<text text-anchor="middle" x="434.8472" y="-14.3" font-family="Times,serif" font-size="14.00" fill="#000000">typing&#45;extensions</text>
</g>
<!-- importlib&#45;metadata&#45;&gt;typing&#45;extensions -->
<g id="edge11" class="edge">
<title>importlib&#45;metadata&#45;&gt;typing&#45;extensions</title>
<path fill="none" stroke="#000000" d="M479.2629,-72.2022C472.2424,-63.6348 463.6924,-53.2009 455.9756,-43.7839"/>
<polygon fill="#000000" stroke="#000000" points="458.5136,-41.359 449.4681,-35.8425 453.0992,-45.7957 458.5136,-41.359"/>
</g>
<!-- zipp -->
<g id="node14" class="node">
<title>zipp</title>
<ellipse fill="none" stroke="#000000" cx="552.8472" cy="-18" rx="27" ry="18"/>
<text text-anchor="middle" x="552.8472" y="-14.3" font-family="Times,serif" font-size="14.00" fill="#000000">zipp</text>
</g>
<!-- importlib&#45;metadata&#45;&gt;zipp -->
<g id="edge12" class="edge">
<title>importlib&#45;metadata&#45;&gt;zipp</title>
<path fill="none" stroke="#000000" d="M508.4314,-72.2022C515.8961,-63.0928 525.0899,-51.8733 533.1727,-42.0096"/>
<polygon fill="#000000" stroke="#000000" points="536.0075,-44.0722 539.6386,-34.119 530.5931,-39.6354 536.0075,-44.0722"/>
</g>
<!-- pluggy&#45;&gt;importlib&#45;metadata -->
<g id="edge13" class="edge">
<title>pluggy&#45;&gt;importlib&#45;metadata</title>
<path fill="none" stroke="#000000" d="M558.8374,-146.3771C548.0429,-137.0131 534.0868,-124.9067 521.876,-114.3142"/>
<polygon fill="#000000" stroke="#000000" points="524.002,-111.525 514.1546,-107.6161 519.415,-116.8127 524.002,-111.525"/>
</g>
</g>
</svg>
