<?xml version="1.0" encoding="UTF-8" standalone="no"?>
<!DOCTYPE svg PUBLIC "-//W3C//DTD SVG 1.1//EN" "http://www.w3.org/Graphics/SVG/1.1/DTD/svg11.dtd">
<!-- Generated by graphviz version 2.47.3 (20210619.1520)
 -->
<!-- Pages: 1 -->
<svg width="491pt" height="314pt" viewBox="0.00 0.00 491.00 314.00" xmlns="http://www.w3.org/2000/svg"
    xmlns:xlink="http://www.w3.org/1999/xlink">
    <g id="graph0" class="graph" transform="scale(1 1) rotate(0) translate(4 310)">
        <polygon fill="white" stroke="transparent" points="-4,4 -4,-310 487,-310 487,4 -4,4" />
        <!-- 00 -->
        <g id="node1" class="node">
            <title>00</title>
            <polygon fill="yellow" stroke="black" points="299,-36 0,-36 0,0 299,0 299,-36" />
            <text text-anchor="middle" x="149.5" y="-14.3" font-family="Times,serif"
                font-size="14.00">https://github.com/networkx/networkx.git(=v1.10)</text>
        </g>
        <!-- 01 -->
        <g id="node2" class="node">
            <title>01</title>
            <polygon fill="none" stroke="black" stroke-dasharray="5,2"
                points="466.5,-36 351.5,-36 351.5,0 466.5,0 466.5,-36" />
            <text text-anchor="middle" x="409" y="-14.3" font-family="Times,serif"
                font-size="14.00">decorator(=5.0.9)</text>
        </g>
        <!-- 00&#45;&gt;01 -->
        <g id="edge1" class="edge">
            <title>00&#45;&gt;01</title>
            <path fill="none" stroke="black" d="M299.17,-18C313.78,-18 328.03,-18 341.16,-18" />
            <polygon fill="black" stroke="black" points="341.43,-21.5 351.43,-18 341.43,-14.5 341.43,-21.5" />
        </g>
        <!-- 02 -->
        <g id="node3" class="node">
            <title>02</title>
            <polygon fill="yellow" stroke="black" points="197.5,-144 101.5,-144 101.5,-108 197.5,-108 197.5,-144" />
            <text text-anchor="middle" x="149.5" y="-122.3" font-family="Times,serif"
                font-size="14.00">flake8(=3.9.2)</text>
        </g>
        <!-- 03 -->
        <g id="node4" class="node">
            <title>03</title>
            <polygon fill="none" stroke="black" stroke-dasharray="5,2"
                points="461,-198 357,-198 357,-162 461,-162 461,-198" />
            <text text-anchor="middle" x="409" y="-176.3" font-family="Times,serif"
                font-size="14.00">mccabe(=0.6.1)</text>
        </g>
        <!-- 02&#45;&gt;03 -->
        <g id="edge2" class="edge">
            <title>02&#45;&gt;03</title>
            <path fill="none" stroke="black" d="M197.73,-135.9C239.57,-144.68 300.94,-157.55 346.58,-167.12" />
            <polygon fill="black" stroke="black" points="346.15,-170.61 356.65,-169.23 347.59,-163.75 346.15,-170.61" />
        </g>
        <!-- 04 -->
        <g id="node5" class="node">
            <title>04</title>
            <polygon fill="none" stroke="black" stroke-dasharray="5,2"
                points="473.5,-144 344.5,-144 344.5,-108 473.5,-108 473.5,-144" />
            <text text-anchor="middle" x="409" y="-122.3" font-family="Times,serif"
                font-size="14.00">pycodestyle(=2.7.0)</text>
        </g>
        <!-- 02&#45;&gt;04 -->
        <g id="edge3" class="edge">
            <title>02&#45;&gt;04</title>
            <path fill="none" stroke="black" d="M197.73,-126C235.85,-126 290.17,-126 334.04,-126" />
            <polygon fill="black" stroke="black" points="334.1,-129.5 344.1,-126 334.1,-122.5 334.1,-129.5" />
        </g>
        <!-- 05 -->
        <g id="node6" class="node">
            <title>05</title>
            <polygon fill="none" stroke="black" stroke-dasharray="5,2"
                points="463,-90 355,-90 355,-54 463,-54 463,-90" />
            <text text-anchor="middle" x="409" y="-68.3" font-family="Times,serif"
                font-size="14.00">pyflakes(=2.3.1)</text>
        </g>
        <!-- 02&#45;&gt;05 -->
        <g id="edge4" class="edge">
            <title>02&#45;&gt;05</title>
            <path fill="none" stroke="black" d="M197.73,-116.1C239.03,-107.43 299.35,-94.78 344.81,-85.25" />
            <polygon fill="black" stroke="black" points="345.78,-88.62 354.85,-83.15 344.35,-81.77 345.78,-88.62" />
        </g>
        <!-- 06 -->
        <g id="node7" class="node">
            <title>06</title>
            <polygon fill="yellow" stroke="black" points="198.5,-279 100.5,-279 100.5,-243 198.5,-243 198.5,-279" />
            <text text-anchor="middle" x="149.5" y="-257.3" font-family="Times,serif"
                font-size="14.00">loguru(=0.5.3)</text>
        </g>
        <!-- 07 -->
        <g id="node8" class="node">
            <title>07</title>
            <polygon fill="none" stroke="black" stroke-dasharray="5,2"
                points="466,-306 352,-306 352,-270 466,-270 466,-306" />
            <text text-anchor="middle" x="409" y="-284.3" font-family="Times,serif"
                font-size="14.00">colorama(=0.4.4)</text>
        </g>
        <!-- 06&#45;&gt;07 -->
        <g id="edge5" class="edge">
            <title>06&#45;&gt;07</title>
            <path fill="none" stroke="black" d="M198.63,-266.05C238.88,-270.27 296.7,-276.33 341.39,-281.02" />
            <polygon fill="black" stroke="black" points="341.27,-284.52 351.58,-282.08 342,-277.56 341.27,-284.52" />
        </g>
        <!-- 08 -->
        <g id="node9" class="node">
            <title>08</title>
            <polygon fill="none" stroke="black" stroke-dasharray="5,2"
                points="483,-252 335,-252 335,-216 483,-216 483,-252" />
            <text text-anchor="middle" x="409" y="-230.3" font-family="Times,serif"
                font-size="14.00">win32&#45;setctime(=1.0.3)</text>
        </g>
        <!-- 06&#45;&gt;08 -->
        <g id="edge6" class="edge">
            <title>06&#45;&gt;08</title>
            <path fill="none" stroke="black" d="M198.63,-255.95C234,-252.24 282.95,-247.11 324.62,-242.74" />
            <polygon fill="black" stroke="black" points="325.19,-246.2 334.77,-241.68 324.46,-239.24 325.19,-246.2" />
        </g>
    </g>
</svg>