<?xml version="1.0" encoding="UTF-8" standalone="no"?>
<!DOCTYPE svg PUBLIC "-//W3C//DTD SVG 1.1//EN"
 "http://www.w3.org/Graphics/SVG/1.1/DTD/svg11.dtd">
<!-- Generated by graphviz version 2.40.1 (20161225.0304)
 -->
<!-- Title: G Pages: 1 -->
<svg width="588pt" height="188pt"
 viewBox="0.00 0.00 587.89 188.00" xmlns="http://www.w3.org/2000/svg" xmlns:xlink="http://www.w3.org/1999/xlink">
<g id="graph0" class="graph" transform="scale(1 1) rotate(0) translate(4 184)">
<title>G</title>
<polygon fill="#ffffff" stroke="transparent" points="-4,4 -4,-184 583.8916,-184 583.8916,4 -4,4"/>
<!-- TopProd -->
<g id="node1" class="node">
<title>TopProd</title>
<ellipse fill="#ff0000" stroke="#000000" cx="112.7958" cy="-162" rx="41.6928" ry="18"/>
<text text-anchor="middle" x="112.7958" y="-158.3" font-family="Times,serif" font-size="14.00" fill="#000000">TopProd</text>
</g>
<!-- ProdChild -->
<g id="node2" class="node">
<title>ProdChild</title>
<ellipse fill="none" stroke="#000000" cx="46.7958" cy="-90" rx="46.5926" ry="18"/>
<text text-anchor="middle" x="46.7958" y="-86.3" font-family="Times,serif" font-size="14.00" fill="#000000">ProdChild</text>
</g>
<!-- TopProd&#45;&gt;ProdChild -->
<g id="edge1" class="edge">
<title>TopProd&#45;&gt;ProdChild</title>
<path fill="none" stroke="#000000" d="M97.1548,-144.937C88.9734,-136.0119 78.8021,-124.9159 69.7467,-115.0373"/>
<polygon fill="#000000" stroke="#000000" points="72.1205,-112.4472 62.7831,-107.4407 66.9604,-117.1773 72.1205,-112.4472"/>
</g>
<!-- MutualChild -->
<g id="node6" class="node">
<title>MutualChild</title>
<ellipse fill="none" stroke="#000000" cx="167.7958" cy="-90" rx="55.7903" ry="18"/>
<text text-anchor="middle" x="167.7958" y="-86.3" font-family="Times,serif" font-size="14.00" fill="#000000">MutualChild</text>
</g>
<!-- TopProd&#45;&gt;MutualChild -->
<g id="edge5" class="edge">
<title>TopProd&#45;&gt;MutualChild</title>
<path fill="none" stroke="#000000" d="M126.1098,-144.5708C132.7488,-135.8797 140.9069,-125.2001 148.2404,-115.5998"/>
<polygon fill="#000000" stroke="#000000" points="151.1248,-117.5896 154.4139,-107.5182 145.5621,-113.3403 151.1248,-117.5896"/>
</g>
<!-- MutualGrandChild -->
<g id="node3" class="node">
<title>MutualGrandChild</title>
<ellipse fill="none" stroke="#000000" cx="166.7958" cy="-18" rx="77.9862" ry="18"/>
<text text-anchor="middle" x="166.7958" y="-14.3" font-family="Times,serif" font-size="14.00" fill="#000000">MutualGrandChild</text>
</g>
<!-- ProdChild&#45;&gt;MutualGrandChild -->
<g id="edge2" class="edge">
<title>ProdChild&#45;&gt;MutualGrandChild</title>
<path fill="none" stroke="#000000" d="M72.2448,-74.7307C88.9177,-64.7269 110.9902,-51.4834 129.6154,-40.3082"/>
<polygon fill="#000000" stroke="#000000" points="131.6688,-43.1579 138.443,-35.0117 128.0673,-37.1555 131.6688,-43.1579"/>
</g>
<!-- TopDev -->
<g id="node4" class="node">
<title>TopDev</title>
<ellipse fill="#0000ff" stroke="#000000" cx="222.7958" cy="-162" rx="39.7935" ry="18"/>
<text text-anchor="middle" x="222.7958" y="-158.3" font-family="Times,serif" font-size="14.00" fill="#000000">TopDev</text>
</g>
<!-- DevChild -->
<g id="node5" class="node">
<title>DevChild</title>
<ellipse fill="none" stroke="#000000" cx="286.7958" cy="-90" rx="44.6926" ry="18"/>
<text text-anchor="middle" x="286.7958" y="-86.3" font-family="Times,serif" font-size="14.00" fill="#000000">DevChild</text>
</g>
<!-- TopDev&#45;&gt;DevChild -->
<g id="edge3" class="edge">
<title>TopDev&#45;&gt;DevChild</title>
<path fill="none" stroke="#000000" d="M237.6396,-145.3008C245.6814,-136.2537 255.7757,-124.8977 264.7213,-114.8338"/>
<polygon fill="#000000" stroke="#000000" points="267.5604,-116.908 271.5882,-107.1086 262.3286,-112.2575 267.5604,-116.908"/>
</g>
<!-- TopDev&#45;&gt;MutualChild -->
<g id="edge6" class="edge">
<title>TopDev&#45;&gt;MutualChild</title>
<path fill="none" stroke="#000000" d="M209.7616,-144.937C203.128,-136.2529 194.9244,-125.5137 187.535,-115.8404"/>
<polygon fill="#000000" stroke="#000000" points="190.1627,-113.5145 181.3109,-107.6924 184.6,-117.7638 190.1627,-113.5145"/>
</g>
<!-- DevChild&#45;&gt;MutualGrandChild -->
<g id="edge4" class="edge">
<title>DevChild&#45;&gt;MutualGrandChild</title>
<path fill="none" stroke="#000000" d="M261.6399,-74.9064C244.7902,-64.7966 222.3299,-51.3204 203.4959,-40.02"/>
<polygon fill="#000000" stroke="#000000" points="205.2328,-36.9805 194.8571,-34.8368 201.6313,-42.983 205.2328,-36.9805"/>
</g>
<!-- TopIsolated -->
<g id="node7" class="node">
<title>TopIsolated</title>
<ellipse fill="#ffff00" stroke="#000000" cx="407.7958" cy="-162" rx="52.7911" ry="18"/>
<text text-anchor="middle" x="407.7958" y="-158.3" font-family="Times,serif" font-size="14.00" fill="#000000">TopIsolated</text>
</g>
<!-- IsolatedChild -->
<g id="node8" class="node">
<title>IsolatedChild</title>
<ellipse fill="none" stroke="#000000" cx="407.7958" cy="-90" rx="57.6901" ry="18"/>
<text text-anchor="middle" x="407.7958" y="-86.3" font-family="Times,serif" font-size="14.00" fill="#000000">IsolatedChild</text>
</g>
<!-- TopIsolated&#45;&gt;IsolatedChild -->
<g id="edge7" class="edge">
<title>TopIsolated&#45;&gt;IsolatedChild</title>
<path fill="none" stroke="#000000" d="M407.7958,-143.8314C407.7958,-136.131 407.7958,-126.9743 407.7958,-118.4166"/>
<polygon fill="#000000" stroke="#000000" points="411.2959,-118.4132 407.7958,-108.4133 404.2959,-118.4133 411.2959,-118.4132"/>
</g>
<!-- CycleRed -->
<g id="node9" class="node">
<title>CycleRed</title>
<ellipse fill="#ff0000" stroke="#000000" cx="531.7958" cy="-162" rx="45.4919" ry="18"/>
<text text-anchor="middle" x="531.7958" y="-158.3" font-family="Times,serif" font-size="14.00" fill="#000000">CycleRed</text>
</g>
<!-- CycleBlue -->
<g id="node10" class="node">
<title>CycleBlue</title>
<ellipse fill="#0000ff" stroke="#000000" cx="531.7958" cy="-90" rx="48.1917" ry="18"/>
<text text-anchor="middle" x="531.7958" y="-86.3" font-family="Times,serif" font-size="14.00" fill="#000000">CycleBlue</text>
</g>
<!-- CycleRed&#45;&gt;CycleBlue -->
<g id="edge8" class="edge">
<title>CycleRed&#45;&gt;CycleBlue</title>
<path fill="none" stroke="#000000" d="M525.8435,-143.8314C525.0815,-136.0125 524.8655,-126.6923 525.1954,-118.0221"/>
<polygon fill="#000000" stroke="#000000" points="528.6963,-118.1239 525.8686,-107.9134 521.7117,-117.6587 528.6963,-118.1239"/>
</g>
<!-- CycleBlue&#45;&gt;CycleRed -->
<g id="edge9" class="edge">
<title>CycleBlue&#45;&gt;CycleRed</title>
<path fill="none" stroke="#000000" d="M537.7231,-107.9134C538.497,-115.6993 538.7249,-125.01 538.4069,-133.6941"/>
<polygon fill="#000000" stroke="#000000" points="534.9041,-133.6254 537.7482,-143.8314 541.8894,-134.0794 534.9041,-133.6254"/>
</g>
</g>
</svg>
