<?xml version="1.0" encoding="UTF-8" standalone="no"?>
<!DOCTYPE svg PUBLIC "-//W3C//DTD SVG 1.1//EN" "http://www.w3.org/Graphics/SVG/1.1/DTD/svg11.dtd">
<!-- Generated by graphviz version 2.47.3 (20210619.1520)
 -->
<!-- Pages: 1 -->
<svg width="903pt" height="572pt" viewBox="0.00 0.00 903.00 572.00" xmlns="http://www.w3.org/2000/svg"
    xmlns:xlink="http://www.w3.org/1999/xlink">
    <g id="graph0" class="graph" transform="scale(1 1) rotate(0) translate(4 568)">
        <polygon fill="white" stroke="transparent" points="-4,4 -4,-568 899,-568 899,4 -4,4" />
        <!-- 00 -->
        <g id="node1" class="node">
            <title>00</title>
            <polygon fill="yellow" stroke="black" points="344,-310 0,-310 0,-274 344,-274 344,-310" />
            <text text-anchor="middle" x="172" y="-288.3" font-family="Times,serif"
                font-size="14.00">https://github.com/phoenixframework/phoenix(=9554589)</text>
        </g>
        <!-- 01 -->
        <g id="node2" class="node">
            <title>01</title>
            <polygon fill="yellow" stroke="black" points="503.5,-264 412.5,-264 412.5,-228 503.5,-228 503.5,-264" />
            <text text-anchor="middle" x="458" y="-242.3" font-family="Times,serif"
                font-size="14.00">jason(=1.2.2)</text>
        </g>
        <!-- 00&#45;&gt;01 -->
        <g id="edge1" class="edge">
            <title>00&#45;&gt;01</title>
            <path fill="none" stroke="black" d="M284.43,-273.95C324.85,-267.4 368.73,-260.3 402.14,-254.89" />
            <polygon fill="black" stroke="black" points="402.84,-258.32 412.15,-253.26 401.72,-251.41 402.84,-258.32" />
        </g>
        <!-- 03 -->
        <g id="node4" class="node">
            <title>03</title>
            <polygon fill="none" stroke="black" stroke-dasharray="5,2"
                points="535,-210 381,-210 381,-174 535,-174 535,-210" />
            <text text-anchor="middle" x="458" y="-188.3" font-family="Times,serif"
                font-size="14.00">phoenix_pubsub(=2.0.0)</text>
        </g>
        <!-- 00&#45;&gt;03 -->
        <g id="edge2" class="edge">
            <title>00&#45;&gt;03</title>
            <path fill="none" stroke="black"
                d="M224.03,-273.97C265.92,-259.18 326.8,-237.71 380,-219 385.09,-217.21 390.38,-215.35 395.69,-213.49" />
            <polygon fill="black" stroke="black" points="396.95,-216.76 405.22,-210.14 394.63,-210.15 396.95,-216.76" />
        </g>
        <!-- 04 -->
        <g id="node5" class="node">
            <title>04</title>
            <polygon fill="yellow" stroke="black" points="504.5,-356 411.5,-356 411.5,-320 504.5,-320 504.5,-356" />
            <text text-anchor="middle" x="458" y="-334.3" font-family="Times,serif"
                font-size="14.00">plug(=1.11.1)</text>
        </g>
        <!-- 00&#45;&gt;04 -->
        <g id="edge3" class="edge">
            <title>00&#45;&gt;04</title>
            <path fill="none" stroke="black" d="M284.43,-310.05C324.57,-316.55 368.12,-323.6 401.44,-329" />
            <polygon fill="black" stroke="black" points="401,-332.48 411.43,-330.62 402.12,-325.57 401,-332.48" />
        </g>
        <!-- 06 -->
        <g id="node7" class="node">
            <title>06</title>
            <polygon fill="none" stroke="black" stroke-dasharray="5,2"
                points="708.5,-410 579.5,-410 579.5,-374 708.5,-374 708.5,-410" />
            <text text-anchor="middle" x="644" y="-388.3" font-family="Times,serif"
                font-size="14.00">plug_crypto(=1.2.2)</text>
        </g>
        <!-- 00&#45;&gt;06 -->
        <g id="edge4" class="edge">
            <title>00&#45;&gt;06</title>
            <path fill="none" stroke="black"
                d="M214.95,-310.11C256.17,-327.1 321.25,-351.82 380,-365 443.01,-379.13 516.19,-385.89 569.34,-389.1" />
            <polygon fill="black" stroke="black" points="569.17,-392.6 579.35,-389.68 569.57,-385.61 569.17,-392.6" />
        </g>
        <!-- 07 -->
        <g id="node8" class="node">
            <title>07</title>
            <polygon fill="none" stroke="black" stroke-dasharray="5,2"
                points="701.5,-302 586.5,-302 586.5,-266 701.5,-266 701.5,-302" />
            <text text-anchor="middle" x="644" y="-280.3" font-family="Times,serif"
                font-size="14.00">telemetry(=0.4.3)</text>
        </g>
        <!-- 00&#45;&gt;07 -->
        <g id="edge5" class="edge">
            <title>00&#45;&gt;07</title>
            <path fill="none" stroke="black" d="M344.01,-289.09C424.52,-287.72 515.89,-286.16 576.2,-285.14" />
            <polygon fill="black" stroke="black" points="576.4,-288.63 586.34,-284.96 576.28,-281.64 576.4,-288.63" />
        </g>
        <!-- 02 -->
        <g id="node3" class="node">
            <title>02</title>
            <polygon fill="none" stroke="black" stroke-dasharray="5,2"
                points="697,-164 591,-164 591,-128 697,-128 697,-164" />
            <text text-anchor="middle" x="644" y="-142.3" font-family="Times,serif"
                font-size="14.00">decimal(=1.9.0)</text>
        </g>
        <!-- 01&#45;&gt;02 -->
        <g id="edge6" class="edge">
            <title>01&#45;&gt;02</title>
            <path fill="none" stroke="black"
                d="M503.8,-232.51C514.57,-228.67 525.89,-224.11 536,-219 563.17,-205.27 591.52,-185.65 612.2,-170.21" />
            <polygon fill="black" stroke="black" points="614.43,-172.91 620.3,-164.09 610.21,-167.33 614.43,-172.91" />
        </g>
        <!-- 05 -->
        <g id="node6" class="node">
            <title>05</title>
            <polygon fill="none" stroke="black" stroke-dasharray="5,2"
                points="691,-356 597,-356 597,-320 691,-320 691,-356" />
            <text text-anchor="middle" x="644" y="-334.3" font-family="Times,serif"
                font-size="14.00">mime(=1.6.0)</text>
        </g>
        <!-- 04&#45;&gt;05 -->
        <g id="edge7" class="edge">
            <title>04&#45;&gt;05</title>
            <path fill="none" stroke="black" d="M504.96,-338C529.76,-338 560.59,-338 586.82,-338" />
            <polygon fill="black" stroke="black" points="586.99,-341.5 596.99,-338 586.99,-334.5 586.99,-341.5" />
        </g>
        <!-- 04&#45;&gt;06 -->
        <g id="edge8" class="edge">
            <title>04&#45;&gt;06</title>
            <path fill="none" stroke="black" d="M504.96,-351.49C525.08,-357.39 549.16,-364.46 571.53,-371.03" />
            <polygon fill="black" stroke="black" points="570.75,-374.44 581.33,-373.9 572.72,-367.73 570.75,-374.44" />
        </g>
        <!-- 04&#45;&gt;07 -->
        <g id="edge9" class="edge">
            <title>04&#45;&gt;07</title>
            <path fill="none" stroke="black" d="M504.96,-324.51C526.66,-318.14 552.97,-310.42 576.78,-303.43" />
            <polygon fill="black" stroke="black" points="577.85,-306.77 586.46,-300.59 575.88,-300.05 577.85,-306.77" />
        </g>
        <!-- 08 -->
        <g id="node9" class="node">
            <title>08</title>
            <polygon fill="yellow" stroke="black" points="218,-95 126,-95 126,-59 218,-59 218,-95" />
            <text text-anchor="middle" x="172" y="-73.3" font-family="Times,serif"
                font-size="14.00">ecto(=2.2.12)</text>
        </g>
        <!-- 08&#45;&gt;02 -->
        <g id="edge10" class="edge">
            <title>08&#45;&gt;02</title>
            <path fill="none" stroke="black"
                d="M218.2,-90.2C259.85,-101.82 323.56,-118.21 380,-127 448.2,-137.63 527.3,-142.33 580.8,-144.39" />
            <polygon fill="black" stroke="black" points="580.69,-147.89 590.82,-144.76 580.95,-140.9 580.69,-147.89" />
        </g>
        <!-- 09 -->
        <g id="node10" class="node">
            <title>09</title>
            <polygon fill="none" stroke="black" stroke-dasharray="5,2"
                points="716,-72 572,-72 572,-36 716,-36 716,-72" />
            <text text-anchor="middle" x="644" y="-50.3" font-family="Times,serif"
                font-size="14.00">db_connection(=1.1.3)</text>
        </g>
        <!-- 08&#45;&gt;09 -->
        <g id="edge11" class="edge">
            <title>08&#45;&gt;09</title>
            <path fill="none" stroke="black" d="M218.07,-74.79C297.26,-70.92 462.39,-62.84 561.87,-57.97" />
            <polygon fill="black" stroke="black" points="562.07,-61.46 571.89,-57.48 561.73,-54.47 562.07,-61.46" />
        </g>
        <!-- 011 -->
        <g id="node12" class="node">
            <title>011</title>
            <polygon fill="none" stroke="black" stroke-dasharray="5,2"
                points="877.5,-36 769.5,-36 769.5,0 877.5,0 877.5,-36" />
            <text text-anchor="middle" x="823.5" y="-14.3" font-family="Times,serif"
                font-size="14.00">poolboy(=1.5.2)</text>
        </g>
        <!-- 08&#45;&gt;011 -->
        <g id="edge12" class="edge">
            <title>08&#45;&gt;011</title>
            <path fill="none" stroke="black"
                d="M218.04,-70.03C291.81,-58.92 443.09,-37.37 572,-27 635.51,-21.89 708.31,-19.68 759,-18.73" />
            <polygon fill="black" stroke="black" points="759.22,-22.22 769.16,-18.55 759.1,-15.22 759.22,-22.22" />
        </g>
        <!-- 012 -->
        <g id="node13" class="node">
            <title>012</title>
            <polygon fill="yellow" stroke="black" points="516.5,-118 399.5,-118 399.5,-82 516.5,-82 516.5,-118" />
            <text text-anchor="middle" x="458" y="-96.3" font-family="Times,serif"
                font-size="14.00">postgrex(=0.13.5)</text>
        </g>
        <!-- 08&#45;&gt;012 -->
        <g id="edge13" class="edge">
            <title>08&#45;&gt;012</title>
            <path fill="none" stroke="black" d="M218,-80.64C264.14,-84.38 336.45,-90.24 389.45,-94.53" />
            <polygon fill="black" stroke="black" points="389.2,-98.02 399.45,-95.34 389.77,-91.04 389.2,-98.02" />
        </g>
        <!-- 010 -->
        <g id="node11" class="node">
            <title>010</title>
            <polygon fill="none" stroke="black" stroke-dasharray="5,2"
                points="885,-99 762,-99 762,-63 885,-63 885,-99" />
            <text text-anchor="middle" x="823.5" y="-77.3" font-family="Times,serif"
                font-size="14.00">connection(=1.0.4)</text>
        </g>
        <!-- 09&#45;&gt;010 -->
        <g id="edge14" class="edge">
            <title>09&#45;&gt;010</title>
            <path fill="none" stroke="black" d="M716.17,-64.83C727.89,-66.61 740.02,-68.45 751.72,-70.23" />
            <polygon fill="black" stroke="black" points="751.46,-73.73 761.87,-71.78 752.51,-66.81 751.46,-73.73" />
        </g>
        <!-- 09&#45;&gt;011 -->
        <g id="edge15" class="edge">
            <title>09&#45;&gt;011</title>
            <path fill="none" stroke="black" d="M716.17,-39.56C730.45,-36.67 745.37,-33.64 759.35,-30.81" />
            <polygon fill="black" stroke="black" points="760.24,-34.2 769.35,-28.78 758.85,-27.34 760.24,-34.2" />
        </g>
        <!-- 012&#45;&gt;02 -->
        <g id="edge16" class="edge">
            <title>012&#45;&gt;02</title>
            <path fill="none" stroke="black" d="M516.71,-114.43C537.09,-119.52 560.09,-125.27 580.82,-130.46" />
            <polygon fill="black" stroke="black" points="580.25,-133.92 590.8,-132.95 581.94,-127.13 580.25,-133.92" />
        </g>
        <!-- 012&#45;&gt;09 -->
        <g id="edge17" class="edge">
            <title>012&#45;&gt;09</title>
            <path fill="none" stroke="black" d="M516.71,-85.57C531.07,-81.98 546.72,-78.07 561.96,-74.26" />
            <polygon fill="black" stroke="black" points="563.05,-77.6 571.9,-71.78 561.35,-70.8 563.05,-77.6" />
        </g>
        <!-- 012&#45;&gt;010 -->
        <g id="edge18" class="edge">
            <title>012&#45;&gt;010</title>
            <path fill="none" stroke="black" d="M516.6,-96.99C580.29,-93.66 682.95,-88.29 751.55,-84.71" />
            <polygon fill="black" stroke="black" points="752.04,-88.19 761.84,-84.17 751.67,-81.2 752.04,-88.19" />
        </g>
        <!-- 013 -->
        <g id="node14" class="node">
            <title>013</title>
            <polygon fill="yellow" stroke="black" points="226.5,-510 117.5,-510 117.5,-474 226.5,-474 226.5,-510" />
            <text text-anchor="middle" x="172" y="-488.3" font-family="Times,serif"
                font-size="14.00">ex_doc(=0.24.2)</text>
        </g>
        <!-- 014 -->
        <g id="node15" class="node">
            <title>014</title>
            <polygon fill="none" stroke="black" stroke-dasharray="5,2"
                points="536,-564 380,-564 380,-528 536,-528 536,-564" />
            <text text-anchor="middle" x="458" y="-542.3" font-family="Times,serif"
                font-size="14.00">earmark_parser(=1.4.13)</text>
        </g>
        <!-- 013&#45;&gt;014 -->
        <g id="edge19" class="edge">
            <title>013&#45;&gt;014</title>
            <path fill="none" stroke="black"
                d="M226.72,-499.39C260.5,-504.3 304.94,-511.26 344,-519 354.12,-521 364.71,-523.29 375.17,-525.65" />
            <polygon fill="black" stroke="black" points="374.62,-529.12 385.15,-527.94 376.19,-522.3 374.62,-529.12" />
        </g>
        <!-- 015 -->
        <g id="node16" class="node">
            <title>015</title>
            <polygon fill="none" stroke="black" stroke-dasharray="5,2"
                points="533,-456 383,-456 383,-420 533,-420 533,-456" />
            <text text-anchor="middle" x="458" y="-434.3" font-family="Times,serif"
                font-size="14.00">makeup_elixir(=0.15.1)</text>
        </g>
        <!-- 013&#45;&gt;015 -->
        <g id="edge20" class="edge">
            <title>013&#45;&gt;015</title>
            <path fill="none" stroke="black" d="M226.75,-481.78C267.96,-473.94 325.6,-462.98 372.9,-453.99" />
            <polygon fill="black" stroke="black" points="373.66,-457.41 382.83,-452.1 372.35,-450.53 373.66,-457.41" />
        </g>
        <!-- 018 -->
        <g id="node19" class="node">
            <title>018</title>
            <polygon fill="none" stroke="black" stroke-dasharray="5,2"
                points="532,-510 384,-510 384,-474 532,-474 532,-510" />
            <text text-anchor="middle" x="458" y="-488.3" font-family="Times,serif"
                font-size="14.00">makeup_erlang(=0.1.1)</text>
        </g>
        <!-- 013&#45;&gt;018 -->
        <g id="edge21" class="edge">
            <title>013&#45;&gt;018</title>
            <path fill="none" stroke="black" d="M226.75,-492C268.18,-492 326.2,-492 373.64,-492" />
            <polygon fill="black" stroke="black" points="373.9,-495.5 383.9,-492 373.9,-488.5 373.9,-495.5" />
        </g>
        <!-- 016 -->
        <g id="node17" class="node">
            <title>016</title>
            <polygon fill="none" stroke="black" stroke-dasharray="5,2"
                points="697,-502 591,-502 591,-466 697,-466 697,-502" />
            <text text-anchor="middle" x="644" y="-480.3" font-family="Times,serif"
                font-size="14.00">makeup(=1.0.5)</text>
        </g>
        <!-- 015&#45;&gt;016 -->
        <g id="edge22" class="edge">
            <title>015&#45;&gt;016</title>
            <path fill="none" stroke="black" d="M531.19,-456.05C547.7,-460.18 565.1,-464.53 581.13,-468.53" />
            <polygon fill="black" stroke="black" points="580.37,-471.95 590.92,-470.98 582.06,-465.16 580.37,-471.95" />
        </g>
        <!-- 017 -->
        <g id="node18" class="node">
            <title>017</title>
            <polygon fill="none" stroke="black" stroke-dasharray="5,2"
                points="895,-479 752,-479 752,-443 895,-443 895,-479" />
            <text text-anchor="middle" x="823.5" y="-457.3" font-family="Times,serif"
                font-size="14.00">nimble_parsec(=1.1.0)</text>
        </g>
        <!-- 015&#45;&gt;017 -->
        <g id="edge23" class="edge">
            <title>015&#45;&gt;017</title>
            <path fill="none" stroke="black" d="M533.44,-442.71C594.04,-446.54 679.44,-451.95 741.69,-455.89" />
            <polygon fill="black" stroke="black" points="741.67,-459.39 751.87,-456.53 742.11,-452.41 741.67,-459.39" />
        </g>
        <!-- 016&#45;&gt;017 -->
        <g id="edge24" class="edge">
            <title>016&#45;&gt;017</title>
            <path fill="none" stroke="black" d="M697.3,-477.22C711.17,-475.43 726.49,-473.44 741.5,-471.5" />
            <polygon fill="black" stroke="black" points="742.36,-474.91 751.83,-470.16 741.46,-467.97 742.36,-474.91" />
        </g>
        <!-- 018&#45;&gt;016 -->
        <g id="edge25" class="edge">
            <title>018&#45;&gt;016</title>
            <path fill="none" stroke="black" d="M532.25,-488.82C548.36,-488.11 565.28,-487.38 580.9,-486.7" />
            <polygon fill="black" stroke="black" points="581.12,-490.19 590.96,-486.26 580.82,-483.2 581.12,-490.19" />
        </g>
        <!-- 019 -->
        <g id="node20" class="node">
            <title>019</title>
            <polygon fill="yellow" stroke="black" points="220.5,-564 123.5,-564 123.5,-528 220.5,-528 220.5,-564" />
            <text text-anchor="middle" x="172" y="-542.3" font-family="Times,serif"
                font-size="14.00">faker(=0.16.0)</text>
        </g>
    </g>
</svg>