<?xml version="1.0" encoding="UTF-8" standalone="no"?>
<!DOCTYPE svg PUBLIC "-//W3C//DTD SVG 1.1//EN" "http://www.w3.org/Graphics/SVG/1.1/DTD/svg11.dtd">
<!-- Generated by graphviz version 2.47.3 (20210619.1520)
 -->
<!-- Pages: 1 -->
<svg width="988pt" height="554pt" viewBox="0.00 0.00 988.00 554.00" xmlns="http://www.w3.org/2000/svg"
    xmlns:xlink="http://www.w3.org/1999/xlink">
    <g id="graph0" class="graph" transform="scale(1 1) rotate(0) translate(4 550)">
        <polygon fill="white" stroke="transparent" points="-4,4 -4,-550 984,-550 984,4 -4,4" />
        <!-- 00 -->
        <g id="node1" class="node">
            <title>00</title>
            <polygon fill="yellow" stroke="black" points="319,-347 0,-347 0,-311 319,-311 319,-347" />
            <text text-anchor="middle" x="159.5" y="-325.3" font-family="Times,serif"
                font-size="14.00">https://github.com/leocavalcante/encrypt.git(=HEAD)</text>
        </g>
        <!-- 01 -->
        <g id="node2" class="node">
            <title>01</title>
            <polygon fill="none" stroke="black" stroke-dasharray="5,2"
                points="462,-324 377,-324 377,-288 462,-288 462,-324" />
            <text text-anchor="middle" x="419.5" y="-302.3" font-family="Times,serif"
                font-size="14.00">args(=2.2.0)</text>
        </g>
        <!-- 00&#45;&gt;01 -->
        <g id="edge1" class="edge">
            <title>00&#45;&gt;01</title>
            <path fill="none" stroke="black" d="M319.12,-314.86C336.19,-313.34 352.53,-311.88 366.86,-310.6" />
            <polygon fill="black" stroke="black" points="367.26,-314.08 376.91,-309.71 366.64,-307.11 367.26,-314.08" />
        </g>
        <!-- 02 -->
        <g id="node3" class="node">
            <title>02</title>
            <polygon fill="none" stroke="black" stroke-dasharray="5,2"
                points="470.5,-270 368.5,-270 368.5,-234 470.5,-234 470.5,-270" />
            <text text-anchor="middle" x="419.5" y="-248.3" font-family="Times,serif"
                font-size="14.00">asn1lib(=1.0.2)</text>
        </g>
        <!-- 00&#45;&gt;02 -->
        <g id="edge2" class="edge">
            <title>00&#45;&gt;02</title>
            <path fill="none" stroke="black" d="M220.99,-310.95C262.49,-298.56 317.33,-282.2 358.68,-269.85" />
            <polygon fill="black" stroke="black" points="359.78,-273.18 368.36,-266.97 357.77,-266.47 359.78,-273.18" />
        </g>
        <!-- 03 -->
        <g id="node4" class="node">
            <title>03</title>
            <polygon fill="none" stroke="black" stroke-dasharray="5,2"
                points="465.5,-216 373.5,-216 373.5,-180 465.5,-180 465.5,-216" />
            <text text-anchor="middle" x="419.5" y="-194.3" font-family="Times,serif"
                font-size="14.00">clock(=1.1.0)</text>
        </g>
        <!-- 00&#45;&gt;03 -->
        <g id="edge3" class="edge">
            <title>00&#45;&gt;03</title>
            <path fill="none" stroke="black"
                d="M192.4,-310.81C230.56,-289.32 296.63,-252.95 355,-225 358.33,-223.41 361.78,-221.8 365.27,-220.22" />
            <polygon fill="black" stroke="black" points="366.84,-223.35 374.55,-216.09 363.99,-216.96 366.84,-223.35" />
        </g>
        <!-- 04 -->
        <g id="node5" class="node">
            <title>04</title>
            <polygon fill="yellow" stroke="black" points="980,-297 856,-297 856,-261 980,-261 980,-297" />
            <text text-anchor="middle" x="918" y="-275.3" font-family="Times,serif"
                font-size="14.00">collection(=1.15.0)</text>
        </g>
        <!-- 00&#45;&gt;04 -->
        <g id="edge4" class="edge">
            <title>00&#45;&gt;04</title>
            <path fill="none" stroke="black"
                d="M188.84,-347.04C225.58,-369.46 292.4,-406.96 355,-425 482.05,-461.61 520.96,-459.62 652,-442 728.72,-431.69 754.95,-437.97 820,-396 855.7,-372.97 884.87,-332.62 901.59,-305.86" />
            <polygon fill="black" stroke="black" points="904.77,-307.37 906.98,-297.01 898.79,-303.73 904.77,-307.37" />
        </g>
        <!-- 05 -->
        <g id="node6" class="node">
            <title>05</title>
            <polygon fill="none" stroke="black" stroke-dasharray="5,2"
                points="634.5,-308 537.5,-308 537.5,-272 634.5,-272 634.5,-308" />
            <text text-anchor="middle" x="586" y="-286.3" font-family="Times,serif"
                font-size="14.00">crypto(=3.0.1)</text>
        </g>
        <!-- 00&#45;&gt;05 -->
        <g id="edge5" class="edge">
            <title>00&#45;&gt;05</title>
            <path fill="none" stroke="black"
                d="M319.01,-344.83C371.96,-346.45 430.98,-344.25 484,-333 501.13,-329.37 503.91,-323.91 520,-317 523.85,-315.34 527.84,-313.65 531.86,-311.95" />
            <polygon fill="black" stroke="black" points="533.37,-315.11 541.23,-308.01 530.66,-308.66 533.37,-315.11" />
        </g>
        <!-- 07 -->
        <g id="node8" class="node">
            <title>07</title>
            <polygon fill="none" stroke="black" stroke-dasharray="5,2"
                points="484,-416 355,-416 355,-380 484,-380 484,-416" />
            <text text-anchor="middle" x="419.5" y="-394.3" font-family="Times,serif"
                font-size="14.00">pointycastle(=3.3.0)</text>
        </g>
        <!-- 00&#45;&gt;07 -->
        <g id="edge6" class="edge">
            <title>00&#45;&gt;07</title>
            <path fill="none" stroke="black" d="M227.95,-347.04C264,-356.68 308.42,-368.56 345.3,-378.42" />
            <polygon fill="black" stroke="black" points="344.43,-381.81 354.99,-381.02 346.24,-375.05 344.43,-381.81" />
        </g>
        <!-- 05&#45;&gt;04 -->
        <g id="edge7" class="edge">
            <title>05&#45;&gt;04</title>
            <path fill="none" stroke="black"
                d="M634.75,-288.72C681.85,-287.42 755.9,-285.28 820,-283 828.35,-282.7 837.11,-282.37 845.8,-282.03" />
            <polygon fill="black" stroke="black" points="846.09,-285.52 855.95,-281.62 845.81,-278.52 846.09,-285.52" />
        </g>
        <!-- 06 -->
        <g id="node7" class="node">
            <title>06</title>
            <polygon fill="yellow" stroke="black" points="815.5,-274 692.5,-274 692.5,-238 815.5,-238 815.5,-274" />
            <text text-anchor="middle" x="754" y="-252.3" font-family="Times,serif"
                font-size="14.00">typed_data(=1.3.0)</text>
        </g>
        <!-- 05&#45;&gt;06 -->
        <g id="edge8" class="edge">
            <title>05&#45;&gt;06</title>
            <path fill="none" stroke="black" d="M634.57,-280.26C649.48,-277.2 666.28,-273.76 682.43,-270.45" />
            <polygon fill="black" stroke="black" points="683.29,-273.85 692.38,-268.42 681.88,-266.99 683.29,-273.85" />
        </g>
        <!-- 06&#45;&gt;04 -->
        <g id="edge9" class="edge">
            <title>06&#45;&gt;04</title>
            <path fill="none" stroke="black" d="M815.78,-264.63C825.61,-266.03 835.87,-267.48 845.92,-268.91" />
            <polygon fill="black" stroke="black" points="845.48,-272.38 855.88,-270.32 846.47,-265.45 845.48,-272.38" />
        </g>
        <!-- 07&#45;&gt;04 -->
        <g id="edge10" class="edge">
            <title>07&#45;&gt;04</title>
            <path fill="none" stroke="black"
                d="M477.42,-416.08C524.77,-428.41 593.61,-440.02 652,-425 743.95,-401.35 838.16,-338.31 885.6,-303.3" />
            <polygon fill="black" stroke="black" points="887.99,-305.89 893.91,-297.1 883.8,-300.28 887.99,-305.89" />
        </g>
        <!-- 08 -->
        <g id="node9" class="node">
            <title>08</title>
            <polygon fill="none" stroke="black" stroke-dasharray="5,2"
                points="638,-362 534,-362 534,-326 638,-326 638,-362" />
            <text text-anchor="middle" x="586" y="-340.3" font-family="Times,serif"
                font-size="14.00">convert(=3.0.1)</text>
        </g>
        <!-- 07&#45;&gt;08 -->
        <g id="edge11" class="edge">
            <title>07&#45;&gt;08</title>
            <path fill="none" stroke="black" d="M475.73,-379.87C491.27,-374.77 508.25,-369.19 524.1,-363.99" />
            <polygon fill="black" stroke="black" points="525.39,-367.25 533.8,-360.81 523.2,-360.6 525.39,-367.25" />
        </g>
        <!-- 09 -->
        <g id="node10" class="node">
            <title>09</title>
            <polygon fill="none" stroke="black" stroke-dasharray="5,2"
                points="621.5,-416 550.5,-416 550.5,-380 621.5,-380 621.5,-416" />
            <text text-anchor="middle" x="586" y="-394.3" font-family="Times,serif" font-size="14.00">js(=0.6.3)</text>
        </g>
        <!-- 07&#45;&gt;09 -->
        <g id="edge12" class="edge">
            <title>07&#45;&gt;09</title>
            <path fill="none" stroke="black" d="M484.1,-398C502.67,-398 522.57,-398 539.76,-398" />
            <polygon fill="black" stroke="black" points="540.07,-401.5 550.07,-398 540.07,-394.5 540.07,-401.5" />
        </g>
        <!-- 08&#45;&gt;06 -->
        <g id="edge13" class="edge">
            <title>08&#45;&gt;06</title>
            <path fill="none" stroke="black"
                d="M632.85,-325.97C639.35,-323.12 645.89,-320.09 652,-317 674.09,-305.82 697.83,-291.6 716.75,-279.7" />
            <polygon fill="black" stroke="black" points="718.78,-282.56 725.34,-274.25 715.02,-276.65 718.78,-282.56" />
        </g>
        <!-- 010 -->
        <g id="node11" class="node">
            <title>010</title>
            <polygon fill="yellow" stroke="black" points="813,-182 695,-182 695,-146 813,-146 813,-182" />
            <text text-anchor="middle" x="754" y="-160.3" font-family="Times,serif"
                font-size="14.00">characters(=1.1.0)</text>
        </g>
        <!-- 011 -->
        <g id="node12" class="node">
            <title>011</title>
            <polygon fill="yellow" stroke="black" points="798.5,-90 709.5,-90 709.5,-54 798.5,-54 798.5,-90" />
            <text text-anchor="middle" x="754" y="-68.3" font-family="Times,serif" font-size="14.00">meta(=1.7.0)</text>
        </g>
        <!-- 012 -->
        <g id="node13" class="node">
            <title>012</title>
            <polygon fill="yellow" stroke="black" points="797,-546 711,-546 711,-510 797,-510 797,-546" />
            <text text-anchor="middle" x="754" y="-524.3" font-family="Times,serif"
                font-size="14.00">path(=1.8.0)</text>
        </g>
        <!-- 013 -->
        <g id="node14" class="node">
            <title>013</title>
            <polygon fill="yellow" stroke="black" points="474,-147 365,-147 365,-111 474,-111 474,-147" />
            <text text-anchor="middle" x="419.5" y="-125.3" font-family="Times,serif"
                font-size="14.00">provider(=5.0.0)</text>
        </g>
        <!-- 013&#45;&gt;04 -->
        <g id="edge14" class="edge">
            <title>013&#45;&gt;04</title>
            <path fill="none" stroke="black"
                d="M464.6,-147.01C481.71,-153.57 501.59,-160.68 520,-166 650.88,-203.85 691.62,-183.38 820,-229 839.73,-236.01 860.51,-246.29 877.75,-255.71" />
            <polygon fill="black" stroke="black" points="876.49,-259.01 886.93,-260.82 879.9,-252.9 876.49,-259.01" />
        </g>
        <!-- 013&#45;&gt;06 -->
        <g id="edge15" class="edge">
            <title>013&#45;&gt;06</title>
            <path fill="none" stroke="black"
                d="M452.49,-147.04C463.11,-153.82 474.62,-162.07 484,-171 503.57,-189.63 496.89,-205.99 520,-220 568.68,-249.53 633.25,-257.6 682.07,-258.81" />
            <polygon fill="black" stroke="black" points="682.19,-262.31 692.24,-258.97 682.3,-255.31 682.19,-262.31" />
        </g>
        <!-- 013&#45;&gt;010 -->
        <g id="edge16" class="edge">
            <title>013&#45;&gt;010</title>
            <path fill="none" stroke="black"
                d="M474.1,-138.41C488.93,-140.79 505.06,-143.19 520,-145 575.25,-151.68 638.17,-156.66 684.68,-159.84" />
            <polygon fill="black" stroke="black" points="684.73,-163.35 694.94,-160.53 685.2,-156.37 684.73,-163.35" />
        </g>
        <!-- 013&#45;&gt;011 -->
        <g id="edge17" class="edge">
            <title>013&#45;&gt;011</title>
            <path fill="none" stroke="black"
                d="M460.36,-110.81C478.23,-103.43 499.8,-95.58 520,-91 580.29,-77.32 651.32,-73.19 698.97,-72.09" />
            <polygon fill="black" stroke="black" points="699.14,-75.59 709.07,-71.9 699,-68.59 699.14,-75.59" />
        </g>
        <!-- 014 -->
        <g id="node15" class="node">
            <title>014</title>
            <polygon fill="none" stroke="black" stroke-dasharray="5,2"
                points="634.5,-136 537.5,-136 537.5,-100 634.5,-100 634.5,-136" />
            <text text-anchor="middle" x="586" y="-114.3" font-family="Times,serif"
                font-size="14.00">nested(=1.0.0)</text>
        </g>
        <!-- 013&#45;&gt;014 -->
        <g id="edge18" class="edge">
            <title>013&#45;&gt;014</title>
            <path fill="none" stroke="black" d="M474.36,-125.4C491.2,-124.27 509.85,-123.03 526.96,-121.88" />
            <polygon fill="black" stroke="black" points="527.64,-125.34 537.39,-121.18 527.18,-118.36 527.64,-125.34" />
        </g>
        <!-- 015 -->
        <g id="node16" class="node">
            <title>015</title>
            <polygon fill="yellow" stroke="black" points="820,-36 688,-36 688,0 820,0 820,-36" />
            <text text-anchor="middle" x="754" y="-14.3" font-family="Times,serif"
                font-size="14.00">vector_math(=2.1.0)</text>
        </g>
        <!-- 013&#45;&gt;015 -->
        <g id="edge19" class="edge">
            <title>013&#45;&gt;015</title>
            <path fill="none" stroke="black"
                d="M446.41,-110.94C465.86,-98.12 493.59,-81.42 520,-71 570.96,-50.9 631.35,-37.43 677.88,-29.1" />
            <polygon fill="black" stroke="black" points="678.64,-32.52 687.89,-27.35 677.43,-25.63 678.64,-32.52" />
        </g>
        <!-- 014&#45;&gt;04 -->
        <g id="edge20" class="edge">
            <title>014&#45;&gt;04</title>
            <path fill="none" stroke="black"
                d="M634.72,-110.49C684.47,-105.14 762.98,-103.86 820,-137 864.21,-162.69 892.69,-217.57 906.69,-251.08" />
            <polygon fill="black" stroke="black" points="903.59,-252.77 910.57,-260.74 910.09,-250.15 903.59,-252.77" />
        </g>
        <!-- 014&#45;&gt;06 -->
        <g id="edge21" class="edge">
            <title>014&#45;&gt;06</title>
            <path fill="none" stroke="black" d="M608.7,-136.04C638.03,-160.42 690.43,-203.98 723.36,-231.36" />
            <polygon fill="black" stroke="black" points="721.37,-234.25 731.29,-237.95 725.84,-228.87 721.37,-234.25" />
        </g>
        <!-- 014&#45;&gt;010 -->
        <g id="edge22" class="edge">
            <title>014&#45;&gt;010</title>
            <path fill="none" stroke="black" d="M634.57,-131.18C650.27,-135.53 668.04,-140.46 684.97,-145.15" />
            <polygon fill="black" stroke="black" points="684.23,-148.58 694.81,-147.87 686.1,-141.83 684.23,-148.58" />
        </g>
        <!-- 014&#45;&gt;011 -->
        <g id="edge23" class="edge">
            <title>014&#45;&gt;011</title>
            <path fill="none" stroke="black" d="M634.57,-104.82C654.91,-99.18 678.76,-92.57 699.7,-86.77" />
            <polygon fill="black" stroke="black" points="700.7,-90.13 709.4,-84.08 698.83,-83.38 700.7,-90.13" />
        </g>
        <!-- 014&#45;&gt;015 -->
        <g id="edge24" class="edge">
            <title>014&#45;&gt;015</title>
            <path fill="none" stroke="black"
                d="M608.86,-99.9C628.67,-84.07 659.11,-61.15 688,-45 690.83,-43.42 693.76,-41.88 696.76,-40.38" />
            <polygon fill="black" stroke="black" points="698.34,-43.5 705.87,-36.05 695.33,-37.18 698.34,-43.5" />
        </g>
        <!-- 016 -->
        <g id="node17" class="node">
            <title>016</title>
            <polygon fill="yellow" stroke="black" points="208,-546 111,-546 111,-510 208,-510 208,-546" />
            <text text-anchor="middle" x="159.5" y="-524.3" font-family="Times,serif"
                font-size="14.00">quiver(=3.0.1)</text>
        </g>
        <!-- 017 -->
        <g id="node18" class="node">
            <title>017</title>
            <polygon fill="none" stroke="black" stroke-dasharray="5,2"
                points="479.5,-546 359.5,-546 359.5,-510 479.5,-510 479.5,-546" />
            <text text-anchor="middle" x="419.5" y="-524.3" font-family="Times,serif"
                font-size="14.00">matcher(=0.12.11)</text>
        </g>
        <!-- 016&#45;&gt;017 -->
        <g id="edge25" class="edge">
            <title>016&#45;&gt;017</title>
            <path fill="none" stroke="black" d="M208.12,-528C247.7,-528 304.55,-528 349.18,-528" />
            <polygon fill="black" stroke="black" points="349.37,-531.5 359.37,-528 349.37,-524.5 349.37,-531.5" />
        </g>
        <!-- 018 -->
        <g id="node19" class="node">
            <title>018</title>
            <polygon fill="none" stroke="black" stroke-dasharray="5,2"
                points="652,-546 520,-546 520,-510 652,-510 652,-546" />
            <text text-anchor="middle" x="586" y="-524.3" font-family="Times,serif"
                font-size="14.00">stack_trace(=1.10.0)</text>
        </g>
        <!-- 017&#45;&gt;018 -->
        <g id="edge26" class="edge">
            <title>017&#45;&gt;018</title>
            <path fill="none" stroke="black" d="M479.89,-528C489.52,-528 499.6,-528 509.56,-528" />
            <polygon fill="black" stroke="black" points="509.85,-531.5 519.85,-528 509.85,-524.5 509.85,-531.5" />
        </g>
        <!-- 018&#45;&gt;012 -->
        <g id="edge27" class="edge">
            <title>018&#45;&gt;012</title>
            <path fill="none" stroke="black" d="M652.13,-528C668.07,-528 684.94,-528 700.22,-528" />
            <polygon fill="black" stroke="black" points="700.51,-531.5 710.51,-528 700.51,-524.5 700.51,-531.5" />
        </g>
    </g>
</svg>