<?xml version="1.0" encoding="UTF-8" standalone="no"?>
<!DOCTYPE svg PUBLIC "-//W3C//DTD SVG 1.1//EN" "http://www.w3.org/Graphics/SVG/1.1/DTD/svg11.dtd">
<!-- Generated by graphviz version 2.47.3 (20210619.1520)
 -->
<!-- Pages: 1 -->
<svg width="674pt" height="44pt" viewBox="0.00 0.00 674.00 44.00" xmlns="http://www.w3.org/2000/svg"
    xmlns:xlink="http://www.w3.org/1999/xlink">
    <g id="graph0" class="graph" transform="scale(1 1) rotate(0) translate(4 40)">
        <polygon fill="white" stroke="transparent" points="-4,4 -4,-40 670,-40 670,4 -4,4" />
        <!-- 00 -->
        <g id="node1" class="node">
            <title>00</title>
            <polygon fill="yellow" stroke="black" points="319,-36 0,-36 0,0 319,0 319,-36" />
            <text text-anchor="middle" x="159.5" y="-14.3" font-family="Times,serif"
                font-size="14.00">https://github.com/leocavalcante/encrypt.git(=HEAD)</text>
        </g>
        <!-- 01 -->
        <g id="node2" class="node">
            <title>01</title>
            <polygon fill="yellow" stroke="black" points="423.5,-36 337.5,-36 337.5,0 423.5,0 423.5,-36" />
            <text text-anchor="middle" x="380.5" y="-14.3" font-family="Times,serif"
                font-size="14.00">path(=1.8.0)</text>
        </g>
        <!-- 02 -->
        <g id="node3" class="node">
            <title>02</title>
            <polygon fill="yellow" stroke="black" points="551,-36 442,-36 442,0 551,0 551,-36" />
            <text text-anchor="middle" x="496.5" y="-14.3" font-family="Times,serif"
                font-size="14.00">provider(=5.0.0)</text>
        </g>
        <!-- 03 -->
        <g id="node4" class="node">
            <title>03</title>
            <polygon fill="yellow" stroke="black" points="666,-36 569,-36 569,0 666,0 666,-36" />
            <text text-anchor="middle" x="617.5" y="-14.3" font-family="Times,serif"
                font-size="14.00">quiver(=3.0.1)</text>
        </g>
    </g>
</svg>